<svg width="630" height="542" viewBox="0 0 630 542" fill="none" xmlns="http://www.w3.org/2000/svg">
<path d="M136.841 26.6123C141.568 22.6674 157.5 9.5 162 6.5C169.598 1.99919 171.88 1.99934 181.751 1.99998L182.113 2C191.793 2 201.165 3.26171 210.118 6.93331C223.767 12.5303 239.535 13.1409 254.597 13.6556C292.376 14.9467 330.045 15.6615 367.96 15.6615C416.198 15.6615 463.803 24.7488 510.061 36.3705C550.499 46.5302 598.286 55.9915 612.869 95.787C624.509 127.554 628 163.394 628 196.622C628 214.038 627.138 231.142 625.742 248.503C623.132 280.97 609.776 311.868 600.178 342.995C594.034 362.92 586.49 382.649 579.677 402.411C575.13 415.602 570.366 428.585 563.814 441.119C559.259 449.832 553.482 459.518 546.364 466.815C533.459 480.046 516.453 494.059 499.017 502.378C480.248 511.333 459.771 517.847 440.2 525.256C424.718 531.117 408.473 535.125 391.878 537.562C366.988 541.217 340.431 540.537 315.55 537.02C282.335 532.325 252.211 523.693 223.358 508.45C191.394 491.563 163.039 470.628 135.499 448.546C121.174 437.059 106.429 425.929 94.0097 412.711C80.4325 398.261 69.094 381.943 57.7067 366.143C45.0932 348.642 32.5934 331.018 21.6477 312.636C8.39054 290.371 1.89148 266.278 2.00137 241.184C2.11761 214.64 4.16824 189.522 16.8887 165.179C27.8473 144.207 40.0156 123.699 54.656 104.569C68.2352 86.8261 83.8765 70.4328 100.111 54.5858C111.092 43.8671 125.047 36.4564 136.841 26.6123Z" fill="#38B2AC" stroke="#38B2AC" stroke-width="3" stroke-linecap="round"/>
</svg>
